<svg id="wave" style="transform:rotate(180deg); transition: 0.3s" viewBox="0 0 1440 490" version="1.1" xmlns="http://www.w3.org/2000/svg"><defs><linearGradient id="sw-gradient-0" x1="0" x2="0" y1="1" y2="0"><stop stop-color="rgba(243, 106, 62, 1)" offset="0%"></stop><stop stop-color="rgba(255, 179, 11, 1)" offset="100%"></stop></linearGradient></defs><path style="transform:translate(0, 0px); opacity:1" fill="url(#sw-gradient-0)" d="M0,294L60,310.3C120,327,240,359,360,318.5C480,278,600,163,720,114.3C840,65,960,82,1080,73.5C1200,65,1320,33,1440,57.2C1560,82,1680,163,1800,187.8C1920,212,2040,180,2160,138.8C2280,98,2400,49,2520,57.2C2640,65,2760,131,2880,179.7C3000,229,3120,261,3240,236.8C3360,212,3480,131,3600,130.7C3720,131,3840,212,3960,220.5C4080,229,4200,163,4320,171.5C4440,180,4560,261,4680,253.2C4800,245,4920,147,5040,98C5160,49,5280,49,5400,81.7C5520,114,5640,180,5760,196C5880,212,6000,180,6120,155.2C6240,131,6360,114,6480,130.7C6600,147,6720,196,6840,179.7C6960,163,7080,82,7200,40.8C7320,0,7440,0,7560,16.3C7680,33,7800,65,7920,114.3C8040,163,8160,229,8280,277.7C8400,327,8520,359,8580,375.7L8640,392L8640,490L8580,490C8520,490,8400,490,8280,490C8160,490,8040,490,7920,490C7800,490,7680,490,7560,490C7440,490,7320,490,7200,490C7080,490,6960,490,6840,490C6720,490,6600,490,6480,490C6360,490,6240,490,6120,490C6000,490,5880,490,5760,490C5640,490,5520,490,5400,490C5280,490,5160,490,5040,490C4920,490,4800,490,4680,490C4560,490,4440,490,4320,490C4200,490,4080,490,3960,490C3840,490,3720,490,3600,490C3480,490,3360,490,3240,490C3120,490,3000,490,2880,490C2760,490,2640,490,2520,490C2400,490,2280,490,2160,490C2040,490,1920,490,1800,490C1680,490,1560,490,1440,490C1320,490,1200,490,1080,490C960,490,840,490,720,490C600,490,480,490,360,490C240,490,120,490,60,490L0,490Z"></path><defs><linearGradient id="sw-gradient-1" x1="0" x2="0" y1="1" y2="0"><stop stop-color="rgba(243, 106, 62, 1)" offset="0%"></stop><stop stop-color="rgba(255, 179, 11, 1)" offset="100%"></stop></linearGradient></defs><path style="transform:translate(0, 50px); opacity:0.9" fill="url(#sw-gradient-1)" d="M0,294L60,285.8C120,278,240,261,360,253.2C480,245,600,245,720,261.3C840,278,960,310,1080,277.7C1200,245,1320,147,1440,106.2C1560,65,1680,82,1800,73.5C1920,65,2040,33,2160,57.2C2280,82,2400,163,2520,204.2C2640,245,2760,245,2880,228.7C3000,212,3120,180,3240,196C3360,212,3480,278,3600,318.5C3720,359,3840,376,3960,375.7C4080,376,4200,359,4320,294C4440,229,4560,114,4680,65.3C4800,16,4920,33,5040,98C5160,163,5280,278,5400,326.7C5520,376,5640,359,5760,367.5C5880,376,6000,408,6120,383.8C6240,359,6360,278,6480,253.2C6600,229,6720,261,6840,294C6960,327,7080,359,7200,367.5C7320,376,7440,359,7560,302.2C7680,245,7800,147,7920,106.2C8040,65,8160,82,8280,147C8400,212,8520,327,8580,383.8L8640,441L8640,490L8580,490C8520,490,8400,490,8280,490C8160,490,8040,490,7920,490C7800,490,7680,490,7560,490C7440,490,7320,490,7200,490C7080,490,6960,490,6840,490C6720,490,6600,490,6480,490C6360,490,6240,490,6120,490C6000,490,5880,490,5760,490C5640,490,5520,490,5400,490C5280,490,5160,490,5040,490C4920,490,4800,490,4680,490C4560,490,4440,490,4320,490C4200,490,4080,490,3960,490C3840,490,3720,490,3600,490C3480,490,3360,490,3240,490C3120,490,3000,490,2880,490C2760,490,2640,490,2520,490C2400,490,2280,490,2160,490C2040,490,1920,490,1800,490C1680,490,1560,490,1440,490C1320,490,1200,490,1080,490C960,490,840,490,720,490C600,490,480,490,360,490C240,490,120,490,60,490L0,490Z"></path><defs><linearGradient id="sw-gradient-2" x1="0" x2="0" y1="1" y2="0"><stop stop-color="rgba(243, 106, 62, 1)" offset="0%"></stop><stop stop-color="rgba(255, 179, 11, 1)" offset="100%"></stop></linearGradient></defs><path style="transform:translate(0, 100px); opacity:0.8" fill="url(#sw-gradient-2)" d="M0,147L60,130.7C120,114,240,82,360,114.3C480,147,600,245,720,277.7C840,310,960,278,1080,294C1200,310,1320,376,1440,351.2C1560,327,1680,212,1800,179.7C1920,147,2040,196,2160,245C2280,294,2400,343,2520,367.5C2640,392,2760,392,2880,359.3C3000,327,3120,261,3240,212.3C3360,163,3480,131,3600,106.2C3720,82,3840,65,3960,81.7C4080,98,4200,147,4320,196C4440,245,4560,294,4680,334.8C4800,376,4920,408,5040,351.2C5160,294,5280,147,5400,114.3C5520,82,5640,163,5760,196C5880,229,6000,212,6120,220.5C6240,229,6360,261,6480,277.7C6600,294,6720,294,6840,310.3C6960,327,7080,359,7200,334.8C7320,310,7440,229,7560,204.2C7680,180,7800,212,7920,204.2C8040,196,8160,147,8280,171.5C8400,196,8520,294,8580,343L8640,392L8640,490L8580,490C8520,490,8400,490,8280,490C8160,490,8040,490,7920,490C7800,490,7680,490,7560,490C7440,490,7320,490,7200,490C7080,490,6960,490,6840,490C6720,490,6600,490,6480,490C6360,490,6240,490,6120,490C6000,490,5880,490,5760,490C5640,490,5520,490,5400,490C5280,490,5160,490,5040,490C4920,490,4800,490,4680,490C4560,490,4440,490,4320,490C4200,490,4080,490,3960,490C3840,490,3720,490,3600,490C3480,490,3360,490,3240,490C3120,490,3000,490,2880,490C2760,490,2640,490,2520,490C2400,490,2280,490,2160,490C2040,490,1920,490,1800,490C1680,490,1560,490,1440,490C1320,490,1200,490,1080,490C960,490,840,490,720,490C600,490,480,490,360,490C240,490,120,490,60,490L0,490Z"></path><defs><linearGradient id="sw-gradient-3" x1="0" x2="0" y1="1" y2="0"><stop stop-color="rgba(243, 106, 62, 1)" offset="0%"></stop><stop stop-color="rgba(255, 179, 11, 1)" offset="100%"></stop></linearGradient></defs><path style="transform:translate(0, 150px); opacity:0.7" fill="url(#sw-gradient-3)" d="M0,343L60,326.7C120,310,240,278,360,220.5C480,163,600,82,720,98C840,114,960,229,1080,277.7C1200,327,1320,310,1440,294C1560,278,1680,261,1800,285.8C1920,310,2040,376,2160,343C2280,310,2400,180,2520,163.3C2640,147,2760,245,2880,294C3000,343,3120,343,3240,334.8C3360,327,3480,310,3600,285.8C3720,261,3840,229,3960,212.3C4080,196,4200,196,4320,171.5C4440,147,4560,98,4680,138.8C4800,180,4920,310,5040,351.2C5160,392,5280,343,5400,294C5520,245,5640,196,5760,212.3C5880,229,6000,310,6120,359.3C6240,408,6360,425,6480,375.7C6600,327,6720,212,6840,187.8C6960,163,7080,229,7200,236.8C7320,245,7440,196,7560,196C7680,196,7800,245,7920,277.7C8040,310,8160,327,8280,318.5C8400,310,8520,278,8580,261.3L8640,245L8640,490L8580,490C8520,490,8400,490,8280,490C8160,490,8040,490,7920,490C7800,490,7680,490,7560,490C7440,490,7320,490,7200,490C7080,490,6960,490,6840,490C6720,490,6600,490,6480,490C6360,490,6240,490,6120,490C6000,490,5880,490,5760,490C5640,490,5520,490,5400,490C5280,490,5160,490,5040,490C4920,490,4800,490,4680,490C4560,490,4440,490,4320,490C4200,490,4080,490,3960,490C3840,490,3720,490,3600,490C3480,490,3360,490,3240,490C3120,490,3000,490,2880,490C2760,490,2640,490,2520,490C2400,490,2280,490,2160,490C2040,490,1920,490,1800,490C1680,490,1560,490,1440,490C1320,490,1200,490,1080,490C960,490,840,490,720,490C600,490,480,490,360,490C240,490,120,490,60,490L0,490Z"></path></svg>